<?xml version="1.0" encoding="UTF-8"?>
<!DOCTYPE svg PUBLIC "-//W3C//DTD SVG 1.1//EN" "http://www.w3.org/Graphics/SVG/1.1/DTD/svg11.dtd">
<!-- Creator: CorelDRAW 2021 (64 Bit) -->
<svg xmlns="http://www.w3.org/2000/svg" xml:space="preserve" width="6.2376mm" height="6.6968mm" version="1.1" style="shape-rendering:geometricPrecision; text-rendering:geometricPrecision; image-rendering:optimizeQuality; fill-rule:evenodd; clip-rule:evenodd"
viewBox="0 0 273.47 293.61"
 xmlns:xlink="http://www.w3.org/1999/xlink"
 xmlns:xodm="http://www.corel.com/coreldraw/odm/2003">
 <defs>
  <style type="text/css">
   <![CDATA[
    .fil2 {fill:black}
    .fil3 {fill:#1BA673}
    .fil0 {fill:#33CC99}
    .fil1 {fill:#33CC99}
   ]]>
  </style>
 </defs>
 <g id="Layer_x0020_1">
  <metadata id="CorelCorpID_0Corel-Layer"/>
  <g id="_2209284819728">
   <path class="fil0" d="M158.06 76.45l11.15 19.34 -0.1 0 53.06 93.83 -37.43 0 -34.35 -60.74 -34.35 60.74 -37.43 0 53.07 -93.83c3.88,-6.69 7.77,-13.37 11.66,-20.05 4.75,-6.84 11.9,-4.95 14.71,0.71z"/>
   <path class="fil1" d="M150.4 0c5.33,0 9.65,4.32 9.65,9.65 0,5.34 -4.32,9.66 -9.65,9.66 -5.34,0 -9.66,-4.32 -9.66,-9.66 0,-5.33 4.32,-9.65 9.66,-9.65z"/>
   <path class="fil2" d="M150.4 241.19c-51.94,0 -94.03,-42.1 -94.03,-94.03 0,-51.94 42.1,-94.03 94.03,-94.03 51.93,0 94.03,42.1 94.03,94.03 0,51.93 -42.1,94.03 -94.03,94.03zm123.07 -94.03c0,-67.97 -55.1,-123.07 -123.07,-123.07 -67.97,0 -123.07,55.1 -123.07,123.07 0,67.97 55.1,123.07 123.07,123.07 67.97,0 123.07,-55.1 123.07,-123.07z"/>
   <path class="fil2" d="M9.66 137.5c5.33,0 9.65,4.32 9.65,9.66 0,5.33 -4.32,9.65 -9.65,9.65 -5.34,0 -9.66,-4.32 -9.66,-9.65 0,-5.34 4.32,-9.66 9.66,-9.66z"/>
   <path class="fil2" d="M150.4 274.29c5.33,0 9.65,4.32 9.65,9.65 0,5.34 -4.32,9.66 -9.65,9.66 -5.34,0 -9.66,-4.32 -9.66,-9.66 0,-5.33 4.32,-9.65 9.66,-9.65z"/>
   <polygon class="fil3" points="156.04,127.38 157.19,139.4 148.56,134.94 137.57,129.93 145.75,124.68 155.58,117.67 "/>
  </g>
 </g>
</svg>
